<svg id="Layer_1" data-name="Layer 1" xmlns="http://www.w3.org/2000/svg" viewBox="0 0 390.75 63.32">
  <defs>
    <style>
      .cls-1 {
        isolation: isolate;
      }

      .cls-2 {
        fill: #231f20;
      }

      .cls-3 {
        fill: #2881be;
      }

      .cls-4 {
        fill: #227d3e;
      }

      .cls-5 {
        fill: #f5a61d;
      }

      .cls-6 {
        fill: #db1f26;
      }

      .cls-7 {
        fill: #444545;
      }
    </style>
  </defs>
  <title>Vector Smart Object-01</title>
  <g class="cls-1">
    <path class="cls-2" d="M4.94,22.19H1.82V18.06H16.75c6.19,0,10.61,4.18,10.61,10.61S22.95,39.42,16.75,39.42h-7V51.95H4.94ZM16,35.29c4,0,6.43-2.54,6.43-6.63S20,22.19,16,22.19H9.74V35.29Z"/>
  </g>
  <g class="cls-1">
    <path class="cls-2" d="M43.88,36.83h1.06v-.24c0-4.27-1.58-5.81-5.38-5.81-1.15,0-4,.29-4,1.87V34H31.2v-2.4c0-4,6-4.56,8.4-4.56,7.87,0,10,4.13,10,9.5V46.91A.94.94,0,0,0,50.65,48h2v4H48.25c-2.16,0-3-1.05-3-2.78a10.57,10.57,0,0,1,.1-1.44h-.1a8.3,8.3,0,0,1-7.73,4.8c-4.18,0-8.26-2.54-8.26-7.39C29.24,37.31,39.8,36.83,43.88,36.83Zm-5.38,12c3.94,0,6.48-4.13,6.48-7.73v-.82h-1.2c-3.5,0-9.84.19-9.84,4.66C33.94,46.86,35.43,48.78,38.5,48.78Z"/>
    <path class="cls-2" d="M57.84,31.4H54.68V27.66h3.26V21H62.5v6.67h5.81V31.4H62.5V42.54c0,4.85,3.36,5.47,5.14,5.47a5.62,5.62,0,0,0,1.1-.1V52a11.67,11.67,0,0,1-1.63.1c-3.07,0-9.26-1-9.26-9.07Z"/>
    <path class="cls-2" d="M74.79,32.7a.94.94,0,0,0-1.06-1.06h-2v-4h4.56c2.16,0,3.07.91,3.07,3.07V46.91A.94.94,0,0,0,80.45,48h2v4H77.86c-2.16,0-3.07-.91-3.07-3.07Zm.1-14.64h4.18v4.85H74.88Z"/>
    <path class="cls-2" d="M97.59,27.08c6.82,0,10.46,5.09,10.46,11.38,0,.62-.14,1.92-.14,1.92H90.2a8.14,8.14,0,0,0,8.35,8.11,11.17,11.17,0,0,0,7.1-2.83l2,3.31a14.21,14.21,0,0,1-9.36,3.55C90.63,52.53,85.4,47,85.4,39.81,85.4,32.08,90.68,27.08,97.59,27.08ZM103.25,37c-.14-4-2.69-6.19-5.71-6.19A7,7,0,0,0,90.39,37Z"/>
    <path class="cls-2" d="M114.24,32.7a.94.94,0,0,0-1.06-1.06h-2v-4h4.46c2.06,0,3.07.91,3.07,2.69v.91a10.2,10.2,0,0,1-.1,1.39h.1a9.89,9.89,0,0,1,9.12-5.57c5.76,0,8.35,3.12,8.35,9.31V46.91A.94.94,0,0,0,137.28,48h2v4h-4.61c-2.16,0-3.07-.91-3.07-3.07V37.45c0-3.41-.67-6.1-4.56-6.1a7.87,7.87,0,0,0-7.68,6,10,10,0,0,0-.43,3.26V51.95h-4.66Z"/>
    <path class="cls-2" d="M144.48,31.4h-3.17V27.66h3.26V21h4.56v6.67h5.81V31.4h-5.81V42.54c0,4.85,3.36,5.47,5.14,5.47a5.62,5.62,0,0,0,1.1-.1V52a11.67,11.67,0,0,1-1.63.1c-3.07,0-9.26-1-9.26-9.07Z"/>
  </g>
  <g class="cls-1">
    <path class="cls-2" d="M175.58,17.63c4.8,0,12.63,2.06,12.63,7.15v2.78H185V25.69c0-3.17-5.47-4.9-9.36-4.9-7.49,0-13.25,5.86-13.25,14s5.71,14.54,13.39,14.54a15.42,15.42,0,0,0,11-4.75l1.92,2.45a17.91,17.91,0,0,1-13,5.47c-9.89,0-16.85-7.87-16.85-17.71S166.08,17.63,175.58,17.63Z"/>
    <path class="cls-2" d="M205.05,27.23a12.65,12.65,0,1,1-12.72,12.53A12.5,12.5,0,0,1,205.05,27.23Zm0,22.37a9.52,9.52,0,0,0,9.36-9.84,9.39,9.39,0,1,0-18.77,0A9.53,9.53,0,0,0,205.1,49.6Z"/>
    <path class="cls-2" d="M223.92,31.69a1,1,0,0,0-1.06-1.06h-2V27.8h3.36c2,0,2.93.86,2.93,2.69v1.1a15.57,15.57,0,0,1-.1,1.73h.1a10.26,10.26,0,0,1,9.6-6.1c6,0,8.11,3.41,8.11,9.36V48.06a.94.94,0,0,0,1.06,1.06h2v2.83h-3.41c-2.06,0-2.93-.86-2.93-2.93V37.45c0-3.79-.58-7.15-5.23-7.15a9.18,9.18,0,0,0-8.78,6.82,11.93,11.93,0,0,0-.38,3.26V51.95h-3.26Z"/>
    <path class="cls-2" d="M253.1,31.69A1,1,0,0,0,252,30.64h-2V27.8h3.36c2,0,2.93.86,2.93,2.69v1.1a15.57,15.57,0,0,1-.1,1.73h.1a10.26,10.26,0,0,1,9.6-6.1c6,0,8.11,3.41,8.11,9.36V48.06a.94.94,0,0,0,1.06,1.06h2v2.83h-3.41c-2.06,0-2.93-.86-2.93-2.93V37.45c0-3.79-.58-7.15-5.23-7.15a9.18,9.18,0,0,0-8.78,6.82,11.93,11.93,0,0,0-.38,3.26V51.95H253.1Z"/>
    <path class="cls-2" d="M291.93,27.23c6.67,0,10.13,5.14,10.13,11.14,0,.58-.1,1.63-.1,1.63H283.43c.1,6.1,4.37,9.6,9.36,9.6a10.76,10.76,0,0,0,7.25-3l1.58,2.45a13.71,13.71,0,0,1-9,3.46A12.23,12.23,0,0,1,280,39.9C280,32,285.45,27.23,291.93,27.23ZM298.7,37.4c-.19-5-3.26-7.44-6.82-7.44-4,0-7.49,2.59-8.3,7.44Z"/>
    <path class="cls-2" d="M319,27.23c2.74,0,8.59,1.15,8.59,5.14v2.16h-3.07V33.13c0-2-3.5-3-5.52-3-5.18,0-9.36,3.89-9.36,9.74a9.25,9.25,0,0,0,9.46,9.65,10.68,10.68,0,0,0,7.78-3.41l1.54,2.45A12.75,12.75,0,0,1,319,52.53c-7.2,0-12.67-5.14-12.67-12.62A12.35,12.35,0,0,1,319,27.23Z"/>
    <path class="cls-2" d="M334.22,30.54H331V27.8h3.22V21.13h3.22V27.8h6v2.74h-6V42.83c0,5.67,3.6,6.38,5.42,6.38a5.63,5.63,0,0,0,1.1-.1V52a9.21,9.21,0,0,1-1.39.1c-2.78,0-8.4-.91-8.4-9Z"/>
  </g>
  <g>
    <path class="cls-3" d="M355,9.17a1,1,0,0,0,.55,1.06L359,12a1,1,0,0,0,1.08-.1l.18-.19h0a.92.92,0,0,0,.11-.17,11.78,11.78,0,0,1,8.69-5.66,1,1,0,0,0,1-1s0-.06,0-.08L369.85.93a1,1,0,0,0-.74-.93A19.67,19.67,0,0,0,355,9.17Zm4.53.15a1.92,1.92,0,0,1-.21.23,1.48,1.48,0,0,1-.23-.21,1.63,1.63,0,0,1,.21-.22,1.28,1.28,0,0,1,.25.2Zm-.38,1.76c0-.07.2-.15.21-.22s.14.2.23.21.15-.22.21-.23A1.14,1.14,0,0,1,360,11a1.49,1.49,0,0,0-.21.22s.21.14.22.21-.15.23-.21.22-.19-.18-.22-.21a1.45,1.45,0,0,1-.22-.21s-.21-.15-.21-.2ZM358,8.28c0-.07.2-.15.21-.23s.15.21.22.21.14-.22.21-.22.15.21.22.21S359,8,359.07,8s.24.17.23.21a1.42,1.42,0,0,1-.21.22,1.51,1.51,0,0,1-.21.23c-.06,0-.18-.21-.22-.21s-.18.24-.21.22a1.06,1.06,0,0,1-.22-.21S358,8.32,358,8.28Zm-1.72.93a1.84,1.84,0,0,1,.22.21,1.58,1.58,0,0,1-.21.22,1.54,1.54,0,0,1-.22-.21,1.48,1.48,0,0,1,.19-.23Zm.38-1.76.23.21a1.59,1.59,0,0,1,.23.21c0,.06.21.14.22.21s-.21.16-.21.22.21.14.22.21l.45.42-.42.45c-.09,0-.15-.2-.23-.21s-.15.22-.21.23a1.53,1.53,0,0,1-.22-.21c0-.07.2-.15.21-.23l-.45-.42c0-.08.21-.15.21-.23s-.2-.19-.22-.21l-.22-.21Zm.43-.45a1.46,1.46,0,0,1-.21.22,1.56,1.56,0,0,1-.22-.21,1.61,1.61,0,0,1,.21-.23,1.86,1.86,0,0,1,.2.22Z"/>
    <path class="cls-4" d="M351.66,20a19.61,19.61,0,0,0,1.86,8.37,1,1,0,0,0,1.22.14l3.35-1.93a1,1,0,0,0,.39-1.36l0,0a12,12,0,0,1-1-5.18,11.85,11.85,0,0,1,1-5.19,1,1,0,0,0-.33-1.38l0,0-3.35-1.94a1,1,0,0,0-1.2.13,19.54,19.54,0,0,0-1.29,3.63l.09.11-.17.16A19.72,19.72,0,0,0,351.66,20Zm4.26,1.75-.42-.45c.08,0,.15-.21.23-.21s.18.19.21.22.22.18.21.22-.21.14-.23.21l.21.22c-.07,0-.15.22-.22.21a1.69,1.69,0,0,1-.21-.22c0-.07.19-.13.21-.2Zm-2.78-2.46c0-.07.22-.14.22-.22s-.22-.15-.21-.22.22-.14.23-.21-.23-.19-.21-.22.17-.16.22-.21l.22-.21.43.45-.45.43.22.22.22-.21.21.22s.22.19.21.22-.2.13-.22.21l-.43-.45-.22.21s-.19.22-.22.21-.15-.21-.23-.23Z"/>
    <path class="cls-5" d="M354.74,31.63a19.67,19.67,0,0,0,14.93,7.63,1,1,0,0,0,.68-1l-.2-3.87a1,1,0,0,0-1-1h-.08a12.26,12.26,0,0,1-9.23-4.72,1,1,0,0,0-1.38-.33l0,0-3.25,2.11A1,1,0,0,0,354.74,31.63Zm8.63.51a1.59,1.59,0,0,1,.21-.22,1.67,1.67,0,0,1,.22.21,1.34,1.34,0,0,1-.21.23A1.62,1.62,0,0,1,363.37,32.14Z"/>
    <path class="cls-3" d="M372.45,39.61a19.59,19.59,0,0,0,11.71-4.45h0l-.23.2c0-.07-.21-.16-.2-.23a1.71,1.71,0,0,1,.23-.2c.08,0,.13.21.2.24l.23-.21a.09.09,0,0,0,0,.06c.4-.34.77-.69,1.14-1h0s.1-.1.17-.14l0,0h0l-.2-.23-.2-.23s-.19-.17-.2-.23.21-.19.23-.21a1.35,1.35,0,0,0,.23-.2,1.57,1.57,0,0,1-.2-.23,1.69,1.69,0,0,1,.23-.2c.07,0,.13.21.2.23s.23-.21.23-.2l.2.23s.21.19.2.23-.24.15-.23.2.09.11.15.16c.33-.37.65-.74.94-1.13a1,1,0,0,0-.44-1.14l-3.26-2.08a1,1,0,0,0-1.39.26l0,0A12.27,12.27,0,0,1,373,33.75a1,1,0,0,0-1.07.93s0,0,0,.07l-.17,3.86A1,1,0,0,0,372.45,39.61Zm12.87-9.22a1.3,1.3,0,0,1,.23-.2,1.55,1.55,0,0,1,.2.23,1.58,1.58,0,0,1-.23.2,1.65,1.65,0,0,1-.21-.23ZM382.93,30a1.65,1.65,0,0,1-.23.2,1.91,1.91,0,0,1-.2-.23,1.39,1.39,0,0,1,.23-.2A1.37,1.37,0,0,1,382.93,30Zm.5-.84a1.49,1.49,0,0,1-.23.2,1.74,1.74,0,0,1-.2-.23,1.5,1.5,0,0,1,.23-.21,1.52,1.52,0,0,1,.2.25ZM384,30.3c-.08,0-.13-.21-.21-.23l-.23.21-.21-.23s-.21-.2-.2-.23.2-.13.23-.2l.41.46.23-.2c0,.08.21.16.2.23Zm-1.52,3a1.46,1.46,0,0,1,.23-.21l.2.23.2.23c-.08,0-.15.2-.23.21s-.18-.21-.2-.23-.19-.23-.18-.26ZM382.13,32c0-.07.21-.13.23-.2l-.21-.23.23-.2a2,2,0,0,1,.23-.2c.06,0,.17-.19.23-.21s.14.23.2.24.16-.2.23-.2l.2.23a1.54,1.54,0,0,1,.2.23s.21.18.2.24-.2.15-.23.2l-.2-.23c-.07,0-.16.21-.23.21s-.13-.23-.2-.23-.19.18-.23.2a2,2,0,0,0-.23.2l-.23.21c0-.13-.18-.22-.17-.29Zm-2,4.24.47-.41.4.46-.46.41Zm-1.1.14a1.47,1.47,0,0,1,.23-.2,1.66,1.66,0,0,1,.2.23,1.67,1.67,0,0,1-.24.21,1.47,1.47,0,0,1-.22-.27Zm-2.21-3a1.77,1.77,0,0,1,.23-.2,1.65,1.65,0,0,1,.2.23,1.55,1.55,0,0,1-.24.21,1.75,1.75,0,0,1-.21-.26Zm-1.92,2.5a2,2,0,0,1,.24-.2,1.53,1.53,0,0,1,.2.23,1.48,1.48,0,0,1-.23.2,1.58,1.58,0,0,1-.23-.25Zm-.55-1.57a1.38,1.38,0,0,1,.23-.2,1.51,1.51,0,0,1,.2.23,1.6,1.6,0,0,1-.23.2,1.86,1.86,0,0,1-.22-.25Z"/>
    <g>
      <path class="cls-4" d="M384.31,26.89l.13.07s.1-.11.12-.11.14.22.22.22.15-.21.22-.21.14.21.21.22l-.21.2,1.67,1h0s.19-.22.22-.21.14.2.21.22l.63.66h0l.45-.43.38.4a1.11,1.11,0,0,0,.26-.18c.23-.5.44-1,.64-1.54a.27.27,0,0,0-.15-.18s.22-.14.22-.21-.2-.15-.21-.22.15-.21.23-.21.1.09.16.16a19.67,19.67,0,0,0,.94-4.82l-.33-.35.36-.35v-.64A19.64,19.64,0,0,0,388.8,12a1,1,0,0,0-1.21-.13l-2.47,1.43c0,.05.07.11.1.12l-.45.43-.21-.22h0l-.32.19a1,1,0,0,0-.5,1l.15-.13.21.22s.22.19.21.23-.19.18-.22.21l-.12.12a10.52,10.52,0,0,1,.76,3.1.23.23,0,0,0,.16-.14s.15-.21.22-.21.19.2.21.22-.22.19-.22.22.19.19.21.22l.21.22c-.06,0-.16.22-.22.21s-.18-.18-.21-.22a1.43,1.43,0,0,1-.21-.22l-.14-.13a5.93,5.93,0,0,0,0,.93l.06.07h-.06v.61a12.06,12.06,0,0,1-1,5.17,1,1,0,0,0,.39,1.36ZM385,15.72l-.23.21s-.18.21-.22.21-.14-.21-.21-.22.22-.14.22-.21-.2-.15-.21-.23.14-.21.22-.21.19.2.21.22S385,15.68,385,15.72Zm.85.89a1.35,1.35,0,0,1,.21.22l-.22.21s-.19.21-.22.21-.18-.19-.21-.22l-.21-.22-.22-.22c.08-.06.14-.16.23-.21l.21.22a1.47,1.47,0,0,0,.21.22c.06,0,.2-.21.25-.21Zm1.29.9a1.36,1.36,0,0,1-.22.21l-.22-.22-.21-.22c.08,0,.14-.21.22-.21s.19.2.21.22.25.18.25.22Zm-.14-1.1c.08,0,.15-.21.22-.21s.19.2.21.22.21.18.21.22a1.36,1.36,0,0,1-.22.21l-.21-.22Zm-.66.2c0-.08-.21-.14-.21-.22s.2-.19.22-.21.18-.21.22-.21a1.48,1.48,0,0,1,.21.22l-.22.21Zm-.2-.66a1.55,1.55,0,0,1-.21-.22,1.45,1.45,0,0,1,.22-.21,1.79,1.79,0,0,1,.21.22,1.6,1.6,0,0,1-.25.26Zm.17,2a1.51,1.51,0,0,1-.22.21,1.42,1.42,0,0,1-.22-.22,1.74,1.74,0,0,1,.22-.22,1.47,1.47,0,0,1,.2.21Zm1-3.47.21.22s.22.2.21.22a2.28,2.28,0,0,1-.22.21l-.23.21.21.22s.21.18.21.22-.23.21-.22.21a1.33,1.33,0,0,1-.21-.22l-.42-.45a.92.92,0,0,1-.22-.22c0-.07.22-.17.22-.21s-.18-.18-.21-.22a1.71,1.71,0,0,0-.21-.22l-.21-.22L386,14s-.21-.18-.21-.22.24-.17.22-.21.18.14.21.22.14-.21.22-.21.19.2.21.22l.21.22c.08,0,.15-.21.22-.21s.19.19.21.22l.21.22c-.07,0-.27.12-.27.19ZM388,13a1.62,1.62,0,0,1,.21.22l-.22.22s-.18.21-.22.21-.14-.21-.22-.22l.22-.21s.12-.24.16-.24Zm1.3.46c-.08,0-.14.21-.22.22s-.19-.2-.21-.22a2.36,2.36,0,0,0-.22-.23c-.07-.06-.14-.15-.21-.22l-.43-.45c.07,0,.15-.21.22-.21s.14.21.21.22Zm0,8.52a1.51,1.51,0,0,1-.22.21,1.56,1.56,0,0,1-.22-.22,1.65,1.65,0,0,1,.23-.21,1.56,1.56,0,0,1,.16.21Zm-.7,2c0-.07.21-.14.22-.21s-.19-.14-.21-.23.21-.16.22-.21-.22-.16-.21-.22.2-.14.22-.21.15-.22.23-.21a1.38,1.38,0,0,1,.21.22L389,23l.21.22s.21.18.21.22-.19.19-.22.21-.22.17-.22.21.21.15.22.22.21.15.21.22-.21.14-.22.21l-.43-.45s-.2-.14-.2-.18Zm0-9.83c-.07,0-.15.2-.22.21s-.15.22-.22.21-.14-.21-.21-.22l.22-.21a1.31,1.31,0,0,1,.22-.21s.17-.21.23-.21.18.19.21.22.21.19.21.22-.19.18-.22.21-.25-.33-.26-.33Zm-.46,1.3.21.22s.21.18.21.22a1.47,1.47,0,0,1-.22.21l-.21-.22-.21-.22c0-.08.08-.27.17-.28Zm-2.85,10.43c0-.08.2-.14.22-.21s-.21-.15-.21-.22a1.53,1.53,0,0,1,.22-.21l.22.22.21.22c0-.06.23-.16.22-.21s-.18-.18-.21-.22-.22-.19-.21-.22.2-.14.22-.21l.43.44c.07,0,.15-.21.22-.21s.18.19.21.22l.21.22c.08,0,.15-.21.23-.21s.15.23.21.22.19-.23.23-.21a2.28,2.28,0,0,1,.21.22l.21.22.22-.21c0,.07.21.15.21.22a1.78,1.78,0,0,1-.22.21c-.08,0-.13-.2-.21-.22s-.15.21-.23.21-.14-.21-.21-.22l-.22.21s-.16.2-.22.21-.16-.22-.21-.22-.17.23-.23.21-.14-.22-.21-.22-.15.22-.22.21-.15-.23-.21-.22-.14.19-.22.21l.43.45a1.09,1.09,0,0,1,.21.22s.22.16.22.22-.21.14-.22.22.22.15.22.22a1.44,1.44,0,0,1-.23.21s-.18-.2-.21-.22l-.22-.22-.21-.22c0-.07-.21-.15-.21-.23s.23-.15.23-.21-.19-.15-.22-.23-.16-.16-.21-.22-.3-.26-.29-.29Z"/>
      <path class="cls-2" d="M384,15h0l-.06-.15Z"/>
    </g>
    <path class="cls-6" d="M373,6.44a12.19,12.19,0,0,1,5.78,1.77l.12-.13c.06-.05.15-.19.22-.22s.17.22.22.22.14-.21.21-.22l.66.65.21-.22s.18-.22.22-.22.19.19.22.21l.22.22.22.21.22.22.22.21c0,.07-.22.15-.22.22s.19.18.22.21l.22.22s.18.22.22.22.16-.23.22-.22.14.21.22.22.15-.22.22-.22.14.2.22.22l-.43.44c-.08,0-.15-.22-.22-.21s-.16.23-.22.22-.16-.18-.22-.21a1.58,1.58,0,0,1-.22-.22l-.22-.21-.22-.21-.22-.21-.22-.22-.66-.65c-.08,0-.14.21-.22.22s-.19-.19-.22-.21l-.22-.22c-.07,0-.14.22-.22.22s-.16-.23-.22-.22-.06,0-.09.08a13.43,13.43,0,0,1,3.1,3,1,1,0,0,0,1.37.36l.05,0,3.28-2a1,1,0,0,0,.46-1.11c-.21-.28-.43-.56-.65-.83l-.1.09a1.42,1.42,0,0,1-.22-.22l.11-.12A19.68,19.68,0,0,0,375.13.91h0l-.54-.1.32.32c-.07,0-.14.22-.22.22s-.17-.19-.22-.22a1.28,1.28,0,0,1-.22-.22l-.19-.18c-.53-.07-1-.12-1.58-.15a1,1,0,0,0-.66,1l.12,3.87a1,1,0,0,0,1,1ZM381.5,5a1.73,1.73,0,0,1,.22.21,1.53,1.53,0,0,1-.21.22,1.49,1.49,0,0,1-.22-.21A1.61,1.61,0,0,1,381.5,5Zm.87-.44a1.52,1.52,0,0,1-.22.22c-.08,0-.14-.19-.22-.22l-.22.22c0-.07-.22-.14-.22-.22a1.62,1.62,0,0,1,.21-.22c.08,0,.14.2.22.21l.22-.22c0,.08.23.15.23.22Zm1.54.64a1.64,1.64,0,0,1-.22.22l-.22-.22-.22-.2c.08,0,.14-.21.22-.22s.2.19.22.21.22.16.22.2Zm1.33,1.73a1.4,1.4,0,0,1-.22.22l-.22-.21-.22-.22c.08,0,.14-.21.22-.22s.19.19.22.21S385.24,6.89,385.24,6.93Zm-.63,2.41L385,8.9l.44.43-.43.44Zm-.23-1.09A1.6,1.6,0,0,1,384.6,8a1.66,1.66,0,0,1,.22.22,1.71,1.71,0,0,1-.22.22,1.39,1.39,0,0,1-.23-.22Zm-1.75-.86c0-.08.2-.15.21-.22s-.19-.13-.22-.22.22-.17.22-.22-.24-.18-.22-.22a2.08,2.08,0,0,1,.21-.22l.21-.22.22-.22.44.44a1.29,1.29,0,0,1,.22.21s.22.16.22.22-.22.15-.22.22.22.14.22.22-.2.15-.22.22.22.14.22.22a1.52,1.52,0,0,1-.21.22l-.22-.22-.22-.22c0-.05-.19-.15-.22-.22s.22-.17.22-.22-.21-.14-.22-.22l-.43.44.22.21s.22.18.22.22-.21.15-.22.22l.44.43c-.07,0-.14.22-.22.22s-.19-.19-.22-.21-.22-.18-.22-.22.2-.15.22-.22l-.22-.22s-.22-.16-.22-.2Zm-.24-1.53c-.07,0-.15-.2-.22-.22l.22-.22s.17-.22.22-.22a1.68,1.68,0,0,1,.22.21l-.21.22s-.19.23-.24.23Zm-.18,3.28a1.69,1.69,0,0,1,.21-.22,1.38,1.38,0,0,1,.22.21,1.59,1.59,0,0,1-.22.22,1.54,1.54,0,0,1-.22-.21Zm-.89-1.3c.07,0,.14-.22.21-.22s.17.19.22.22a1.39,1.39,0,0,1,.22.22l.22.21c-.07,0-.14.22-.22.22s-.17-.19-.22-.22a1.44,1.44,0,0,1-.22-.21ZM380,7.42c.08,0,.14-.21.21-.22s.19.19.22.21.22.18.22.21a1.33,1.33,0,0,1-.22.22l-.22-.22Zm-1.53.23a1.77,1.77,0,0,1,.21-.22,1.32,1.32,0,0,1,.22.22,1.9,1.9,0,0,1-.22.22A1.69,1.69,0,0,1,378.47,7.65Zm-2.45-5a1.54,1.54,0,0,1,.21-.22,1.34,1.34,0,0,1,.22.22,2,2,0,0,1-.21.22,1.49,1.49,0,0,1-.24-.22Zm-1,3.29c0-.07.2-.15.22-.22L375,5.5c.07,0,.14-.22.21-.22a1.44,1.44,0,0,1,.22.22c0,.08-.19.14-.21.22l.44.43c-.07,0-.15.22-.22.22s-.19-.19-.22-.22S375,6,375,5.94Zm-.91-3.49.22-.22s.17-.22.22-.22a1.4,1.4,0,0,1,.22.22c0,.07-.21.15-.22.22l.88.86s-.17.24-.22.22a1.52,1.52,0,0,1-.22-.22ZM373,3.55l.43-.44c.07.07.15.13.22.21s.22.18.22.22-.23.18-.21.22.17.16.22.22.22.17.22.21-.21.15-.22.22-.14.22-.21.22-.2-.19-.22-.21.22-.2.22-.22-.19-.17-.22-.22a1.44,1.44,0,0,0-.22-.21Z"/>
    <polygon class="cls-5" points="365.8 37.77 355.73 41.42 359.63 33.42 365.8 37.77"/>
  </g>
  <g class="cls-1">
    <g class="cls-1">
      <path class="cls-7" d="M362.86,22.14a2.74,2.74,0,0,0,1.83.78c.65,0,1-.34,1-.78s-.44-.76-1.15-.76H364l-.38-.93.87-1.35a3,3,0,0,1,.62-.74v0a3.93,3.93,0,0,1-.75.05h-.17a.22.22,0,0,0-.24.24v.43h-1.76V17.55c0-.56.14-.8.7-.8h4.5v1.2L366,19.84a2.23,2.23,0,0,1,1.72,2.26,2.69,2.69,0,0,1-3,2.63,3.84,3.84,0,0,1-2.79-1.11Z"/>
    </g>
    <g class="cls-1">
      <path class="cls-7" d="M368.29,21c0-2.15,1.31-4.42,3.75-4.42a4,4,0,0,1,1.74.34l-.52,1.65a3,3,0,0,0-1.08-.23,1.71,1.71,0,0,0-1.67,1.3h0a2.27,2.27,0,0,1,1.05-.27,2.58,2.58,0,0,1,2.57,2.69,2.61,2.61,0,0,1-2.68,2.65C369.89,24.73,368.29,23.56,368.29,21ZM371.47,23a.82.82,0,0,0,.79-.88,1.1,1.1,0,0,0-1.19-1.15c-.42,0-.79.11-.79.47A1.44,1.44,0,0,0,371.47,23Z"/>
    </g>
    <g class="cls-1">
      <path class="cls-7" d="M375.74,22.16a2.84,2.84,0,0,0,1.83.76.94.94,0,0,0,1-.91c0-.71-.7-1-1.44-1a3.66,3.66,0,0,0-1.45.3l-.59-.33.24-3.47c0-.56.24-.8.8-.8h3.14c.56,0,.8.24.8.8v1.52h-1.76v-.43a.22.22,0,0,0-.24-.24h-.77c-.15,0-.23.09-.24.24l0,.54c0,.15,0,.31,0,.31h0a4,4,0,0,1,.56,0c2,0,3,1.15,3,2.6a2.75,2.75,0,0,1-3,2.7,3.94,3.94,0,0,1-2.74-1.07Z"/>
    </g>
  </g>
</svg>
